<svg version="1.1" id="Layer_1" xmlns="http://www.w3.org/2000/svg" xmlns:xlink="http://www.w3.org/1999/xlink" x="0px" y="0px"
	 width="100%" viewBox="0 0 612 612" enable-background="new 0 0 612 612" xml:space="preserve">
<path fill="#FEFEFE" opacity="1.000000" stroke="none" 
	d="
M357.000000,613.000000 
	C238.000015,613.000000 119.500046,613.000000 1.000048,613.000000 
	C1.000032,409.000061 1.000032,205.000122 1.000016,1.000130 
	C204.999893,1.000087 408.999786,1.000087 612.999756,1.000043 
	C612.999878,204.999878 612.999878,408.999756 612.999939,612.999817 
	C527.833313,613.000000 442.666656,613.000000 357.000000,613.000000 
M549.355103,388.500214 
	C549.355103,283.123657 549.355103,177.747086 549.355103,72.442780 
	C488.045471,72.442780 427.488434,72.442780 366.795441,72.442780 
	C366.795441,218.711014 366.795441,364.621216 366.795441,510.751556 
	C427.697266,510.751556 488.406647,510.751556 549.355164,510.751556 
	C549.355164,470.118134 549.355164,429.809174 549.355103,388.500214 
M73.575684,416.183960 
	C67.601303,443.468597 66.713974,470.958435 70.449783,498.599304 
	C71.807983,508.648499 73.184425,518.717590 75.183624,528.650635 
	C76.791100,536.637329 81.520309,541.324219 88.437958,541.522522 
	C100.910538,541.880005 113.405701,541.539062 125.889885,541.373291 
	C135.795624,541.241821 141.557343,535.770569 144.047516,526.559875 
	C146.115372,518.911316 147.940155,511.197083 149.944870,503.224609 
	C151.124847,503.743591 152.415207,504.498718 153.807724,504.892517 
	C161.579651,507.090332 169.358185,510.974823 177.167450,511.054596 
	C230.148849,511.595795 283.138519,511.327637 336.125519,511.321075 
	C337.881989,511.320862 339.638428,511.321075 341.538757,511.321075 
	C341.538757,450.186493 341.538757,389.773193 341.538757,329.335754 
	C288.740326,329.335754 236.175415,329.335754 183.063812,329.335754 
	C189.271759,311.678497 194.510880,293.555969 206.470459,278.614288 
	C208.865189,275.622437 213.089417,273.332947 216.886398,272.382263 
	C225.084869,270.329498 233.514267,268.470001 241.918518,268.098114 
	C273.351288,266.707123 304.811859,265.944885 336.262390,264.958191 
	C338.004639,264.903534 339.750092,264.951111 341.420319,264.951111 
	C341.420319,250.659164 341.420319,237.072800 341.420319,223.106674 
	C339.470428,223.106674 337.832031,223.059189 336.197021,223.113922 
	C317.054932,223.754623 297.823883,223.474823 278.793701,225.293884 
	C253.647690,227.697571 228.666946,231.808731 203.598434,235.056992 
	C195.692062,236.081467 190.072769,239.873108 186.644791,247.134720 
	C176.571762,268.472839 166.268784,289.703827 156.386536,311.129303 
	C154.652634,314.888519 152.759476,316.179291 147.694702,314.961426 
	C148.535965,312.079407 148.851303,309.203094 150.147034,306.871613 
	C155.721939,296.840424 150.800629,286.782959 139.564178,285.812408 
	C136.756012,285.569855 133.899048,285.418976 131.098907,285.647491 
	C123.323051,286.282196 118.502205,292.995544 121.646774,300.046936 
	C123.228546,303.593903 126.999313,306.699249 130.522736,308.690125 
	C133.819534,310.553009 138.097046,310.680206 142.152176,311.619751 
	C142.423660,313.021637 142.731537,314.611328 143.084976,316.436401 
	C141.089172,316.761383 139.455536,316.964294 137.849503,317.299438 
	C129.085739,319.128418 119.528351,319.712555 113.220970,326.926208 
	C105.042961,336.279358 97.406380,346.148743 90.096024,356.202576 
	C85.216965,362.912659 83.137817,370.978943 82.898445,379.250183 
	C82.598442,389.616486 81.521629,399.657135 75.957306,408.780701 
	C74.782471,410.707001 74.496063,413.175171 73.575684,416.183960 
M339.896210,164.272873 
	C342.040344,145.497665 342.559845,126.680725 339.875610,107.953163 
	C338.584961,98.948448 336.502625,89.991173 333.947418,81.255600 
	C332.064636,74.818878 329.353973,73.573242 322.812225,73.574738 
	C305.147705,73.578766 287.481812,73.691490 269.819763,73.482903 
	C266.117859,73.439178 264.259644,74.371185 262.933899,78.007095 
	C259.233154,88.156586 254.885818,98.069809 251.157410,108.210022 
	C249.940262,111.520317 248.215530,112.317833 244.928574,112.242767 
	C235.268143,112.022156 225.596100,112.306244 215.935898,112.080666 
	C212.138382,111.991989 209.108643,112.690048 206.966141,116.049141 
	C204.801758,119.442543 201.693710,120.308327 197.645218,120.292351 
	C157.650711,120.134575 117.653542,120.385979 77.662041,120.005486 
	C71.207893,119.944077 67.153503,123.444031 65.641479,127.706551 
	C63.957684,132.453293 64.667847,138.551727 65.959564,143.650421 
	C66.659752,146.414246 70.671722,150.177643 73.307465,150.274094 
	C81.839066,150.586273 91.492058,153.643005 97.902420,144.422958 
	C98.004448,144.276199 98.463799,144.377869 98.519699,144.375153 
	C101.232338,147.600861 103.283455,151.962769 106.627029,153.484100 
	C110.085968,155.057877 114.799507,153.874649 118.964249,153.896545 
	C119.964111,153.901810 120.991714,153.754196 121.958977,153.933533 
	C125.777580,154.641479 128.126099,152.858582 130.202774,149.828659 
	C132.679565,146.214951 135.587784,142.896942 138.498886,139.210495 
	C140.223831,141.390488 141.861694,142.921921 142.845001,144.796677 
	C147.010178,152.737961 153.486038,154.284866 162.102509,154.238129 
	C170.772476,154.191101 177.721130,153.339523 181.394989,144.518570 
	C181.477280,144.320999 181.968552,144.293762 182.752579,144.015396 
	C186.215179,150.325195 192.059845,151.637390 198.762756,150.637146 
	C202.342728,150.102936 204.801682,151.672791 206.763092,154.469238 
	C208.910248,157.530487 211.651657,158.869553 215.630035,158.738541 
	C225.451950,158.415115 235.295593,158.777725 245.120483,158.504333 
	C248.579514,158.408096 250.041153,159.631775 251.207535,162.760147 
	C254.986008,172.894547 259.242188,182.850952 263.011993,192.988358 
	C264.173279,196.111206 265.572296,197.310349 269.059082,197.270111 
	C287.054504,197.062439 305.057159,196.968323 323.049408,197.283600 
	C328.889618,197.385925 332.457733,194.960403 333.896606,189.847748 
	C336.186127,181.712570 337.849152,173.401108 339.896210,164.272873 
z"/>
<path fill="#1E1E1D" opacity="1.000000" stroke="none" 
	d="
M549.355103,389.000244 
	C549.355164,429.809174 549.355164,470.118134 549.355164,510.751556 
	C488.406647,510.751556 427.697266,510.751556 366.795441,510.751556 
	C366.795441,364.621216 366.795441,218.711014 366.795441,72.442780 
	C427.488434,72.442780 488.045471,72.442780 549.355103,72.442780 
	C549.355103,177.747086 549.355103,283.123657 549.355103,389.000244 
M455.577728,272.073761 
	C450.025940,272.407471 444.474152,272.741180 438.922363,273.074890 
	C440.063599,271.461823 441.430298,270.661499 442.834747,269.933960 
	C462.905670,259.536560 482.952087,249.090988 503.087128,238.819244 
	C506.249390,237.206055 507.727753,235.467514 507.570740,231.647491 
	C507.215485,223.002869 507.485443,214.333130 507.460419,205.673737 
	C507.456329,204.263275 507.244080,202.853409 507.141052,201.601715 
	C474.039642,201.601715 441.476135,201.601715 408.663788,201.601715 
	C408.663788,209.490997 408.663788,217.078049 408.663788,225.077972 
	C430.763214,225.077972 452.617004,225.077972 476.028381,225.077972 
	C473.787842,226.405960 472.897980,226.990097 471.959442,227.481247 
	C454.873047,236.422638 438.029388,245.882324 420.588745,254.070145 
	C411.369049,258.398499 406.368378,263.426880 408.223297,274.205719 
	C409.197479,279.866547 408.370361,285.833313 408.413513,291.661499 
	C408.422821,292.917419 408.676727,294.171570 408.813538,295.387085 
	C441.830963,295.387085 474.394806,295.387085 507.205322,295.387085 
	C507.205322,287.517181 507.205322,279.935333 507.205322,272.045380 
	C490.144592,272.045380 473.351379,272.045380 455.577728,272.073761 
M482.733459,436.194550 
	C488.331390,432.924133 493.699738,429.136353 499.589233,426.523010 
	C505.992004,423.681885 508.294159,419.622772 507.586548,412.685486 
	C506.912842,406.080841 507.441467,399.353516 507.441467,391.612213 
	C492.412720,401.631561 478.512146,410.898804 464.474365,420.257477 
	C463.690399,419.115997 463.119873,418.309143 462.573517,417.486267 
	C454.883911,405.904266 443.943054,401.644043 430.616058,404.317657 
	C417.515808,406.945740 411.182037,416.656006 410.065125,428.879669 
	C408.662720,444.227753 408.988708,459.734009 408.598663,475.172729 
	C408.592377,475.421295 408.966278,475.679474 409.267029,476.067810 
	C441.757355,476.067810 474.344666,476.067810 507.212891,476.067810 
	C507.212891,467.313965 507.212891,458.746094 507.212891,449.622314 
	C495.234222,449.622314 483.512421,449.622314 471.983490,449.622314 
	C470.476166,445.012115 471.416870,442.065796 475.623108,440.299377 
	C477.904999,439.341095 479.961487,437.846130 482.733459,436.194550 
M430.633453,350.141815 
	C430.397797,346.050079 430.030090,341.960693 429.956940,337.866058 
	C429.842255,331.448853 429.926483,325.028076 429.926483,318.554138 
	C422.431702,318.554138 415.698547,318.554138 408.691956,318.554138 
	C408.691956,338.091766 408.691956,357.327606 408.691956,376.817688 
	C441.588867,376.817688 474.295441,376.817688 507.219910,376.817688 
	C507.219910,357.382294 507.219910,338.143555 507.219910,318.582031 
	C500.081085,318.582031 493.190125,318.582031 485.727112,318.582031 
	C485.727112,329.161591 485.727112,339.557251 485.727112,350.079773 
	C479.237610,350.079773 473.319061,350.079773 466.902466,350.079773 
	C466.902466,340.296539 466.902466,330.729340 466.902466,321.187256 
	C459.530304,321.187256 452.665527,321.187256 445.379547,321.187256 
	C445.379547,331.001190 445.379547,340.423096 445.379547,350.304840 
	C440.510559,350.304840 436.057922,350.304840 430.633453,350.141815 
M507.446198,133.912994 
	C507.863373,130.300110 505.267639,130.967163 503.205170,130.965500 
	C486.051758,130.951645 468.898315,130.955490 451.744904,130.954346 
	C444.785553,130.953888 437.826172,130.954269 430.136841,130.954269 
	C430.136841,122.726334 430.136841,114.867188 430.136841,107.055573 
	C422.606293,107.055573 415.812561,107.055573 408.698792,107.055573 
	C408.698792,131.972229 408.698792,156.696381 408.698792,181.641083 
	C415.913818,181.641083 422.814423,181.641083 430.234497,181.641083 
	C430.234497,173.642441 430.234497,165.897797 430.234497,157.680939 
	C456.136566,157.680939 481.524261,157.680939 507.447571,157.680939 
	C507.447571,149.752441 507.447571,142.297943 507.446198,133.912994 
z"/>
<path fill="#1E1E1C" opacity="1.000000" stroke="none" 
	d="
M73.687988,415.788818 
	C74.496063,413.175171 74.782471,410.707001 75.957306,408.780701 
	C81.521629,399.657135 82.598442,389.616486 82.898445,379.250183 
	C83.137817,370.978943 85.216965,362.912659 90.096024,356.202576 
	C97.406380,346.148743 105.042961,336.279358 113.220970,326.926208 
	C119.528351,319.712555 129.085739,319.128418 137.849503,317.299438 
	C139.455536,316.964294 141.089172,316.761383 143.084976,316.436401 
	C142.731537,314.611328 142.423660,313.021637 142.152176,311.619751 
	C138.097046,310.680206 133.819534,310.553009 130.522736,308.690125 
	C126.999313,306.699249 123.228546,303.593903 121.646774,300.046936 
	C118.502205,292.995544 123.323051,286.282196 131.098907,285.647491 
	C133.899048,285.418976 136.756012,285.569855 139.564178,285.812408 
	C150.800629,286.782959 155.721939,296.840424 150.147034,306.871613 
	C148.851303,309.203094 148.535965,312.079407 147.694702,314.961426 
	C152.759476,316.179291 154.652634,314.888519 156.386536,311.129303 
	C166.268784,289.703827 176.571762,268.472839 186.644791,247.134720 
	C190.072769,239.873108 195.692062,236.081467 203.598434,235.056992 
	C228.666946,231.808731 253.647690,227.697571 278.793701,225.293884 
	C297.823883,223.474823 317.054932,223.754623 336.197021,223.113922 
	C337.832031,223.059189 339.470428,223.106674 341.420319,223.106674 
	C341.420319,237.072800 341.420319,250.659164 341.420319,264.951111 
	C339.750092,264.951111 338.004639,264.903534 336.262390,264.958191 
	C304.811859,265.944885 273.351288,266.707123 241.918518,268.098114 
	C233.514267,268.470001 225.084869,270.329498 216.886398,272.382263 
	C213.089417,273.332947 208.865189,275.622437 206.470459,278.614288 
	C194.510880,293.555969 189.271759,311.678497 183.063812,329.335754 
	C236.175415,329.335754 288.740326,329.335754 341.538757,329.335754 
	C341.538757,389.773193 341.538757,450.186493 341.538757,511.321075 
	C339.638428,511.321075 337.881989,511.320862 336.125519,511.321075 
	C283.138519,511.327637 230.148849,511.595795 177.167450,511.054596 
	C169.358185,510.974823 161.579651,507.090332 153.807724,504.892517 
	C152.415207,504.498718 151.124847,503.743591 149.944870,503.224609 
	C147.940155,511.197083 146.115372,518.911316 144.047516,526.559875 
	C141.557343,535.770569 135.795624,541.241821 125.889885,541.373291 
	C113.405701,541.539062 100.910538,541.880005 88.437958,541.522522 
	C81.520309,541.324219 76.791100,536.637329 75.183624,528.650635 
	C73.184425,518.717590 71.807983,508.648499 70.449783,498.599304 
	C66.713974,470.958435 67.601303,443.468597 73.687988,415.788818 
M145.464096,460.875244 
	C147.277161,460.650238 149.103882,460.503052 150.901108,460.187744 
	C163.457458,457.984772 173.345520,447.034790 174.226883,434.403168 
	C175.209015,420.327209 167.225159,408.370789 154.000381,404.112640 
	C141.993347,400.246582 128.052917,405.322540 121.194450,415.972290 
	C109.586067,433.997681 120.439537,459.296844 145.464096,460.875244 
z"/>
<path fill="#1F1F1D" opacity="1.000000" stroke="none" 
	d="
M339.836670,164.718536 
	C337.849152,173.401108 336.186127,181.712570 333.896606,189.847748 
	C332.457733,194.960403 328.889618,197.385925 323.049408,197.283600 
	C305.057159,196.968323 287.054504,197.062439 269.059082,197.270111 
	C265.572296,197.310349 264.173279,196.111206 263.011993,192.988358 
	C259.242188,182.850952 254.986008,172.894547 251.207535,162.760147 
	C250.041153,159.631775 248.579514,158.408096 245.120483,158.504333 
	C235.295593,158.777725 225.451950,158.415115 215.630035,158.738541 
	C211.651657,158.869553 208.910248,157.530487 206.763092,154.469238 
	C204.801682,151.672791 202.342728,150.102936 198.762756,150.637146 
	C192.059845,151.637390 186.215179,150.325195 182.752579,144.015396 
	C181.968552,144.293762 181.477280,144.320999 181.394989,144.518570 
	C177.721130,153.339523 170.772476,154.191101 162.102509,154.238129 
	C153.486038,154.284866 147.010178,152.737961 142.845001,144.796677 
	C141.861694,142.921921 140.223831,141.390488 138.498886,139.210495 
	C135.587784,142.896942 132.679565,146.214951 130.202774,149.828659 
	C128.126099,152.858582 125.777580,154.641479 121.958977,153.933533 
	C120.991714,153.754196 119.964111,153.901810 118.964249,153.896545 
	C114.799507,153.874649 110.085968,155.057877 106.627029,153.484100 
	C103.283455,151.962769 101.232338,147.600861 98.519699,144.375153 
	C98.463799,144.377869 98.004448,144.276199 97.902420,144.422958 
	C91.492058,153.643005 81.839066,150.586273 73.307465,150.274094 
	C70.671722,150.177643 66.659752,146.414246 65.959564,143.650421 
	C64.667847,138.551727 63.957684,132.453293 65.641479,127.706551 
	C67.153503,123.444031 71.207893,119.944077 77.662041,120.005486 
	C117.653542,120.385979 157.650711,120.134575 197.645218,120.292351 
	C201.693710,120.308327 204.801758,119.442543 206.966141,116.049141 
	C209.108643,112.690048 212.138382,111.991989 215.935898,112.080666 
	C225.596100,112.306244 235.268143,112.022156 244.928574,112.242767 
	C248.215530,112.317833 249.940262,111.520317 251.157410,108.210022 
	C254.885818,98.069809 259.233154,88.156586 262.933899,78.007095 
	C264.259644,74.371185 266.117859,73.439178 269.819763,73.482903 
	C287.481812,73.691490 305.147705,73.578766 322.812225,73.574738 
	C329.353973,73.573242 332.064636,74.818878 333.947418,81.255600 
	C336.502625,89.991173 338.584961,98.948448 339.875610,107.953163 
	C342.559845,126.680725 342.040344,145.497665 339.836670,164.718536 
M321.667847,156.271454 
	C327.551880,142.870087 328.691284,129.397583 322.038666,115.913712 
	C321.424683,114.669220 319.958099,113.119926 318.772095,113.014931 
	C314.711761,112.655518 310.599976,112.877098 306.421570,112.877098 
	C306.421570,128.367493 306.421570,143.236511 306.421570,159.321106 
	C311.638885,158.495270 316.458954,157.732330 321.667847,156.271454 
z"/>
<path fill="#FAFAF9" opacity="1.000000" stroke="none" 
	d="
M456.067932,272.059570 
	C473.351379,272.045380 490.144592,272.045380 507.205322,272.045380 
	C507.205322,279.935333 507.205322,287.517181 507.205322,295.387085 
	C474.394806,295.387085 441.830963,295.387085 408.813538,295.387085 
	C408.676727,294.171570 408.422821,292.917419 408.413513,291.661499 
	C408.370361,285.833313 409.197479,279.866547 408.223297,274.205719 
	C406.368378,263.426880 411.369049,258.398499 420.588745,254.070145 
	C438.029388,245.882324 454.873047,236.422638 471.959442,227.481247 
	C472.897980,226.990097 473.787842,226.405960 476.028381,225.077972 
	C452.617004,225.077972 430.763214,225.077972 408.663788,225.077972 
	C408.663788,217.078049 408.663788,209.490997 408.663788,201.601715 
	C441.476135,201.601715 474.039642,201.601715 507.141052,201.601715 
	C507.244080,202.853409 507.456329,204.263275 507.460419,205.673737 
	C507.485443,214.333130 507.215485,223.002869 507.570740,231.647491 
	C507.727753,235.467514 506.249390,237.206055 503.087128,238.819244 
	C482.952087,249.090988 462.905670,259.536560 442.834747,269.933960 
	C441.430298,270.661499 440.063599,271.461823 438.922363,273.074890 
	C444.474152,272.741180 450.025940,272.407471 456.067932,272.059570 
z"/>
<path fill="#FCFCFC" opacity="1.000000" stroke="none" 
	d="
M482.426575,436.393890 
	C479.961487,437.846130 477.904999,439.341095 475.623108,440.299377 
	C471.416870,442.065796 470.476166,445.012115 471.983490,449.622314 
	C483.512421,449.622314 495.234222,449.622314 507.212891,449.622314 
	C507.212891,458.746094 507.212891,467.313965 507.212891,476.067810 
	C474.344666,476.067810 441.757355,476.067810 409.267029,476.067810 
	C408.966278,475.679474 408.592377,475.421295 408.598663,475.172729 
	C408.988708,459.734009 408.662720,444.227753 410.065125,428.879669 
	C411.182037,416.656006 417.515808,406.945740 430.616058,404.317657 
	C443.943054,401.644043 454.883911,405.904266 462.573517,417.486267 
	C463.119873,418.309143 463.690399,419.115997 464.474365,420.257477 
	C478.512146,410.898804 492.412720,401.631561 507.441467,391.612213 
	C507.441467,399.353516 506.912842,406.080841 507.586548,412.685486 
	C508.294159,419.622772 505.992004,423.681885 499.589233,426.523010 
	C493.699738,429.136353 488.331390,432.924133 482.426575,436.393890 
M428.756012,446.349274 
	C429.548523,447.492493 430.301270,449.592438 431.139832,449.627289 
	C437.722687,449.900848 444.321960,449.778931 451.500610,449.778931 
	C451.194000,445.685913 451.362030,442.147308 450.585968,438.829529 
	C449.176727,432.804840 444.817017,430.154114 438.185669,430.614288 
	C432.737122,430.992432 429.624023,434.262207 428.939575,440.449677 
	C428.757721,442.093536 428.813904,443.763733 428.756012,446.349274 
z"/>
<path fill="#FBFBFB" opacity="1.000000" stroke="none" 
	d="
M431.119354,350.223328 
	C436.057922,350.304840 440.510559,350.304840 445.379547,350.304840 
	C445.379547,340.423096 445.379547,331.001190 445.379547,321.187256 
	C452.665527,321.187256 459.530304,321.187256 466.902466,321.187256 
	C466.902466,330.729340 466.902466,340.296539 466.902466,350.079773 
	C473.319061,350.079773 479.237610,350.079773 485.727112,350.079773 
	C485.727112,339.557251 485.727112,329.161591 485.727112,318.582031 
	C493.190125,318.582031 500.081085,318.582031 507.219910,318.582031 
	C507.219910,338.143555 507.219910,357.382294 507.219910,376.817688 
	C474.295441,376.817688 441.588867,376.817688 408.691956,376.817688 
	C408.691956,357.327606 408.691956,338.091766 408.691956,318.554138 
	C415.698547,318.554138 422.431702,318.554138 429.926483,318.554138 
	C429.926483,325.028076 429.842255,331.448853 429.956940,337.866058 
	C430.030090,341.960693 430.397797,346.050079 431.119354,350.223328 
z"/>
<path fill="#FAFAF9" opacity="1.000000" stroke="none" 
	d="
M507.446899,134.378204 
	C507.447571,142.297943 507.447571,149.752441 507.447571,157.680939 
	C481.524261,157.680939 456.136566,157.680939 430.234497,157.680939 
	C430.234497,165.897797 430.234497,173.642441 430.234497,181.641083 
	C422.814423,181.641083 415.913818,181.641083 408.698792,181.641083 
	C408.698792,156.696381 408.698792,131.972229 408.698792,107.055573 
	C415.812561,107.055573 422.606293,107.055573 430.136841,107.055573 
	C430.136841,114.867188 430.136841,122.726334 430.136841,130.954269 
	C437.826172,130.954269 444.785553,130.953888 451.744904,130.954346 
	C468.898315,130.955490 486.051758,130.951645 503.205170,130.965500 
	C505.267639,130.967163 507.863373,130.300110 507.446899,134.378204 
z"/>
<path fill="#FCFCFC" opacity="1.000000" stroke="none" 
	d="
M145.032379,460.858917 
	C120.439537,459.296844 109.586067,433.997681 121.194450,415.972290 
	C128.052917,405.322540 141.993347,400.246582 154.000381,404.112640 
	C167.225159,408.370789 175.209015,420.327209 174.226883,434.403168 
	C173.345520,447.034790 163.457458,457.984772 150.901108,460.187744 
	C149.103882,460.503052 147.277161,460.650238 145.032379,460.858917 
z"/>
<path fill="#F7F7F7" opacity="1.000000" stroke="none" 
	d="
M321.473419,156.620422 
	C316.458954,157.732330 311.638885,158.495270 306.421570,159.321106 
	C306.421570,143.236511 306.421570,128.367493 306.421570,112.877098 
	C310.599976,112.877098 314.711761,112.655518 318.772095,113.014931 
	C319.958099,113.119926 321.424683,114.669220 322.038666,115.913712 
	C328.691284,129.397583 327.551880,142.870087 321.473419,156.620422 
z"/>
<path fill="#252524" opacity="1.000000" stroke="none" 
	d="
M428.758423,445.885559 
	C428.813904,443.763733 428.757721,442.093536 428.939575,440.449677 
	C429.624023,434.262207 432.737122,430.992432 438.185669,430.614288 
	C444.817017,430.154114 449.176727,432.804840 450.585968,438.829529 
	C451.362030,442.147308 451.194000,445.685913 451.500610,449.778931 
	C444.321960,449.778931 437.722687,449.900848 431.139832,449.627289 
	C430.301270,449.592438 429.548523,447.492493 428.758423,445.885559 
z"/>
</svg>